<svg width="48" height="49" viewBox="0 0 48 49" fill="none" xmlns="http://www.w3.org/2000/svg">
<path d="M43.611 20.583H42V20.5H24V28.5H35.303C33.654 33.157 29.223 36.5 24 36.5C17.373 36.5 12 31.127 12 24.5C12 17.873 17.373 12.5 24 12.5C27.059 12.5 29.842 13.654 31.961 15.539L37.618 9.882C34.046 6.553 29.268 4.5 24 4.5C12.955 4.5 4 13.455 4 24.5C4 35.545 12.955 44.5 24 44.5C35.045 44.5 44 35.545 44 24.5C44 23.159 43.862 21.85 43.611 20.583Z" fill="#FFC107"/>
<path d="M6.30566 15.191L12.8767 20.01C14.6547 15.608 18.9607 12.5 23.9997 12.5C27.0587 12.5 29.8417 13.654 31.9607 15.539L37.6177 9.882C34.0457 6.553 29.2677 4.5 23.9997 4.5C16.3177 4.5 9.65566 8.837 6.30566 15.191Z" fill="#FF3D00"/>
<path d="M24.0003 44.5002C29.1663 44.5002 33.8603 42.5232 37.4093 39.3082L31.2193 34.0702C29.1439 35.6486 26.6078 36.5023 24.0003 36.5002C18.7983 36.5002 14.3813 33.1832 12.7173 28.5542L6.19531 33.5792C9.50531 40.0562 16.2273 44.5002 24.0003 44.5002Z" fill="#4CAF50"/>
<path d="M43.611 20.583H42V20.5H24V28.5H35.303C34.5142 30.7164 33.0934 32.6532 31.216 34.071L31.219 34.069L37.409 39.307C36.971 39.705 44 34.5 44 24.5C44 23.159 43.862 21.85 43.611 20.583Z" fill="#1976D2"/>
</svg>
