<svg width="72" height="72" viewBox="0 0 72 72" fill="none" xmlns="http://www.w3.org/2000/svg">
<path d="M0 0H52C63.0457 0 72 8.95431 72 20V52C72 63.0457 63.0457 72 52 72H0V0Z" fill="#7C5DFA"/>
<mask id="mask0_519_7492" style="mask-type:luminance" maskUnits="userSpaceOnUse" x="0" y="0" width="72" height="72">
<path d="M0 0H52C63.0457 0 72 8.95431 72 20V52C72 63.0457 63.0457 72 52 72H0V0Z" fill="white"/>
</mask>
<g mask="url(#mask0_519_7492)">
<path d="M72 36.3496H20C8.95431 36.3496 0 45.3039 0 56.3496V88.3496C0 99.3953 8.95431 108.35 20 108.35H72V36.3496Z" fill="#9277FF"/>
</g>
<path fill-rule="evenodd" clip-rule="evenodd" d="M29.0461 23.2386C24.8361 25.6165 22 30.0871 22 35.2102C22 42.8263 28.268 49.0004 36 49.0004C43.732 49.0004 50 42.8263 50 35.2102C50 30.0871 47.1639 25.6165 42.9539 23.2386L36.4463 36.125L36 37.0089L35.5537 36.125L29.0461 23.2386ZM29.9339 22.7782C31.7691 21.9077 33.8267 21.4199 36 21.4199C38.1733 21.4199 40.2309 21.9077 42.0661 22.7782L36 34.7905L29.9339 22.7782Z" fill="white"/>
</svg>
